<?xml version="1.0" encoding="UTF-8"?><svg id="Calque_2" xmlns="http://www.w3.org/2000/svg" viewBox="0 0 236.6 254.67"><defs><style>.cls-1{fill:#fff;stroke:#000;stroke-miterlimit:10;}</style></defs><g id="Calque_1-2"><polygon class="cls-1" points="236.09 121.11 235.62 123.2 234.43 125.19 232.58 126.93 230.09 128.43 84.1 200.56 81.16 201.7 77.85 202.48 74.3 202.85 70.58 202.81 66.95 202.37 63.48 201.55 60.29 200.34 57.53 198.83 6.4 164.7 4.19 162.9 2.59 160.93 1.59 158.8 1.4 156.66 1.87 154.56 3.13 152.58 4.97 150.84 7.4 149.34 153.45 77.28 156.39 76.07 159.7 75.29 163.25 74.92 166.91 74.96 170.54 75.39 174.08 76.22 177.26 77.43 180.02 79 231.09 113.13 233.37 114.87 234.96 116.91 235.9 118.96 236.09 121.11"/><polygon class="cls-1" points="236.09 46.69 235.19 60.53 234.72 62.63 233.53 64.55 231.69 66.29 229.19 67.79 83.2 139.92 80.27 141.06 76.95 141.84 73.4 142.28 69.68 142.23 66.05 141.8 62.58 140.91 59.4 139.7 56.64 138.19 5.5 104.06 3.29 102.26 1.69 100.29 .7 98.16 .5 96.02 1.4 82.24 1.59 84.38 2.59 86.51 4.19 88.48 6.4 90.28 57.53 124.41 60.29 125.92 63.48 127.13 66.95 127.95 70.58 128.39 74.3 128.43 77.85 128.06 81.16 127.28 84.1 126.14 230.09 54.01 232.58 52.51 234.43 50.77 235.62 48.78 236.09 46.69"/><polygon class="cls-1" points="236.09 46.69 235.62 48.78 234.43 50.77 232.58 52.51 230.09 54.01 84.1 126.14 81.16 127.28 77.85 128.06 74.3 128.43 70.58 128.39 66.95 127.95 63.48 127.13 60.29 125.92 57.53 124.41 6.4 90.28 4.19 88.48 2.59 86.51 1.59 84.38 1.4 82.24 1.87 80.14 3.13 78.16 4.97 76.42 7.4 74.92 153.45 2.86 156.39 1.65 159.7 .87 163.25 .5 166.91 .54 170.54 .97 174.08 1.8 177.26 3.01 180.02 4.58 231.09 38.71 233.37 40.45 234.96 42.49 235.9 44.54 236.09 46.69"/><polygon class="cls-1" points="236.09 158.58 235.19 172.42 234.72 174.52 233.53 176.44 231.69 178.18 229.19 179.68 83.2 251.81 80.27 252.95 76.95 253.73 73.4 254.17 69.68 254.12 66.05 253.69 62.58 252.8 59.4 251.59 56.64 250.08 5.5 215.95 3.29 214.15 1.69 212.18 .7 210.05 .5 207.91 1.4 194.13 1.59 196.27 2.59 198.4 4.19 200.37 6.4 202.17 57.53 236.3 60.29 237.81 63.48 239.02 66.95 239.84 70.58 240.28 74.3 240.32 77.85 239.95 81.16 239.17 84.1 238.03 230.09 165.9 232.58 164.4 234.43 162.66 235.62 160.67 236.09 158.58"/></g></svg>